<?xml version="1.0" encoding="UTF-8" standalone="no"?>
<svg
   id="Layer_1"
   data-name="Layer 1"
   viewBox="0 0 264.86 357.67"
   version="1.1"
   sodipodi:docname="rotate_arbitrary_axis_2.svg"
   inkscape:version="1.1.1 (c3084ef, 2021-09-22)"
   xmlns:inkscape="http://www.inkscape.org/namespaces/inkscape"
   xmlns:sodipodi="http://sodipodi.sourceforge.net/DTD/sodipodi-0.dtd"
   xmlns="http://www.w3.org/2000/svg"
   xmlns:svg="http://www.w3.org/2000/svg"
   xmlns:rdf="http://www.w3.org/1999/02/22-rdf-syntax-ns#"
   xmlns:cc="http://creativecommons.org/ns#"
   xmlns:dc="http://purl.org/dc/elements/1.1/">
  <sodipodi:namedview
     id="namedview65804"
     pagecolor="#ffffff"
     bordercolor="#666666"
     borderopacity="1.0"
     inkscape:pageshadow="2"
     inkscape:pageopacity="0.0"
     inkscape:pagecheckerboard="0"
     showgrid="false"
     inkscape:zoom="2.3485335"
     inkscape:cx="127.52639"
     inkscape:cy="178.83501"
     inkscape:window-width="1296"
     inkscape:window-height="1020"
     inkscape:window-x="108"
     inkscape:window-y="25"
     inkscape:window-maximized="0"
     inkscape:current-layer="Layer_1" />
  <defs
     id="defs65701">
    <marker
       style="overflow:visible;"
       id="marker68449"
       refX="0.0"
       refY="0.0"
       orient="auto"
       inkscape:stockid="Arrow1Lend"
       inkscape:isstock="true">
      <path
         transform="scale(0.8) rotate(180) translate(12.5,0)"
         style="fill-rule:evenodd;fill:context-stroke;stroke:context-stroke;stroke-width:1.0pt;"
         d="M 0.0,0.0 L 5.0,-5.0 L -12.5,0.0 L 5.0,5.0 L 0.0,0.0 z "
         id="path68447" />
    </marker>
    <marker
       style="overflow:visible;"
       id="Arrow1Lend"
       refX="0.0"
       refY="0.0"
       orient="auto"
       inkscape:stockid="Arrow1Lend"
       inkscape:isstock="true">
      <path
         transform="scale(0.8) rotate(180) translate(12.5,0)"
         style="fill-rule:evenodd;fill:context-stroke;stroke:context-stroke;stroke-width:1.0pt;"
         d="M 0.0,0.0 L 5.0,-5.0 L -12.5,0.0 L 5.0,5.0 L 0.0,0.0 z "
         id="path50448" />
    </marker>
    <style
       id="style65699">.cls-1,.cls-2{fill:none;stroke:#000;stroke-miterlimit:10;}.cls-2{stroke-dasharray:4 4;}.cls-3{fill:#a6a6a6;}.cls-4{fill:#666;}</style>
  </defs>
  <title
     id="title65703">Rotate arbitrary axis</title>
  <ellipse
     class="cls-1"
     cx="132.43"
     cy="176.59"
     rx="131.89"
     ry="45.85"
     id="ellipse65705" />
  <line
     class="cls-2"
     x1="131.58"
     y1="176.6"
     x2="247.84"
     y2="162.22"
     id="line65715" />
  <polygon
     points="243.65 168.29 247.2 162.3 242.29 157.36 255.89 161.23 243.65 168.29"
     id="polygon65717" />
  <polygon
     class="cls-3"
     points="245.04 166.9 254.58 161.39 247.82 162.23 245.04 166.9"
     id="polygon65719" />
  <polygon
     class="cls-4"
     points="243.99 158.37 254.58 161.39 247.82 162.23 243.99 158.37"
     id="polygon65721" />
  <line
     class="cls-1"
     x1="131.83"
     y1="176.54"
     x2="207.08"
     y2="144.02"
     id="line65731" />
  <polygon
     points="204.76 151.02 206.49 144.28 200.39 140.91 214.52 140.8 204.76 151.02"
     id="polygon65733" />
  <polygon
     class="cls-3"
     points="205.71 149.29 213.32 141.32 207.07 144.03 205.71 149.29"
     id="polygon65735" />
  <polygon
     class="cls-4"
     points="202.3 141.4 213.32 141.32 207.07 144.03 202.3 141.4"
     id="polygon65737" />
  <path
     class="cls-1"
     d="M155.29,166.41c5.25,1.46,9.44,3.43,11.85,5.79"
     id="path65739" />
  <line
     class="cls-1"
     x1="135.06"
     y1="357.66"
     x2="128.41"
     y2="31.8"
     id="line65743" />
  <polygon
     points="134.01 36.6 128.43 32.45 123.01 36.82 128.25 23.7 134.01 36.6"
     id="polygon65745" />
  <polygon
     class="cls-3"
     points="132.78 35.07 128.27 25.01 128.41 31.82 132.78 35.07"
     id="polygon65747" />
  <polygon
     class="cls-4"
     points="124.18 35.24 128.27 25.01 128.41 31.82 124.18 35.24"
     id="polygon65749" />
  <path
     d="M130.32,20.09l-.17-1.47h-.07a4.32,4.32,0,0,1-3.56,1.73A3.3,3.3,0,0,1,123,17c0-2.81,2.5-4.35,7-4.32v-.24a2.4,2.4,0,0,0-2.64-2.69,5.8,5.8,0,0,0-3,.86l-.48-1.39a7.24,7.24,0,0,1,3.82-1c3.55,0,4.41,2.42,4.41,4.75V17.3a15.75,15.75,0,0,0,.2,2.79ZM130,14.16c-2.3-.05-4.92.36-4.92,2.62a1.87,1.87,0,0,0,2,2,2.88,2.88,0,0,0,2.8-1.94,2,2,0,0,0,.12-.67Z"
     id="path65771" />
  <line
     class="cls-1"
     x1="135.02"
     y1="357.27"
     x2="251.17"
     y2="168.75"
     id="line65773" />
  <polygon
     points="253.28 175.82 250.83 169.3 243.91 170.04 255.42 161.85 253.28 175.82"
     id="polygon65775" />
  <polygon
     class="cls-3"
     points="253.07 173.86 254.73 162.97 251.16 168.77 253.07 173.86"
     id="polygon65777" />
  <polygon
     class="cls-4"
     points="245.75 169.35 254.73 162.97 251.16 168.77 245.75 169.35"
     id="polygon65779" />
  <path
     d="M225.45,224.83l2.28,6.52a28.8,28.8,0,0,1,.94,3h.07c.27-1,.6-1.92,1-3l2.25-6.52h2.21l-4.56,11.61h-2l-4.41-11.61Z"
     id="path65781" />
  <path
     d="M184.5,161.64c0-3.31,1.35-5.85,3.8-5.85s3.66,2.36,3.66,5.85c0,3.66-1.19,6.05-3.71,6.05C185.93,167.69,184.5,165.66,184.5,161.64Zm6.05-.61c0-2.31-.75-4.18-2.33-4.18s-2.31,2-2.31,4.18Zm-4.64,1.07c0,2.89,1,4.54,2.38,4.54s2.26-1.89,2.26-4.54Z"
     id="path65783" />
  <line
     class="cls-1"
     x1="210.95"
     y1="148.3"
     x2="135.08"
     y2="356.1"
     id="line65787" />
  <polygon
     points="204.09 151.03 210.72 148.91 214.43 154.8 213.73 140.69 204.09 151.03"
     id="polygon65789" />
  <polygon
     class="cls-3"
     points="205.76 149.97 213.28 141.92 210.94 148.32 205.76 149.97"
     id="polygon65791" />
  <polygon
     class="cls-4"
     points="213.83 152.92 213.28 141.92 210.94 148.32 213.83 152.92"
     id="polygon65793" />
  <path
     d="M163.55,234.3l2.28,6.53c.38,1.06.69,2,.93,3h.08c.26-1,.6-1.92,1-3l2.26-6.53h2.21l-4.57,11.62h-2l-4.42-11.62Z"
     id="path65795" />
  <path
     d="M177.66,229.48a27.41,27.41,0,0,1-2.26,5.69l-1.34.16a34.17,34.17,0,0,0,1.42-5.64Z"
     id="path65797" />
  <path
     style="fill:none;stroke:#fc0000;stroke-width:1px;stroke-linecap:butt;stroke-linejoin:miter;stroke-opacity:1;marker-end:url(#Arrow1Lend)"
     d="m 135.08,356.10001 -3.5,-179.5"
     id="path68312" />
  <path
     style="fill:none;stroke:#0000fd;stroke-width:1px;stroke-linecap:butt;stroke-linejoin:miter;stroke-opacity:1;marker-end:url(#marker68449)"
     d="m 131.83,176.54001 -0.25,0.06 123,-15.21001"
     id="path68412" />
  <text
     xml:space="preserve"
     style="font-size:16px;line-height:1.25;font-family:Menlo;-inkscape-font-specification:Menlo"
     x="109.42999"
     y="243.98206"
     id="text70175"><tspan
       sodipodi:role="line"
       id="tspan70173"
       x="109.42999"
       y="243.98206"
       style="font-size:16px;stroke:#fa0000;stroke-opacity:1"><tspan
         style="fill:#ff0000;fill-opacity:1;stroke:none"
         id="tspan75107">v</tspan><tspan
         style="font-size:6.66667px;fill:#ff0000;fill-opacity:1;stroke:none;stroke-opacity:1"
         id="tspan72133">||</tspan></tspan></text>
  <text
     xml:space="preserve"
     style="font-size:40px;line-height:1.25;font-family:Menlo;-inkscape-font-specification:Menlo"
     x="88.56591"
     y="297.63254"
     id="text73453"><tspan
       sodipodi:role="line"
       id="tspan73451"
       x="88.56591"
       y="297.63254"></tspan><tspan
       sodipodi:role="line"
       id="tspan73455"
       x="88.56591"
       y="347.63254" /></text>
  <text
     xml:space="preserve"
     style="font-size:16px;line-height:1.25;font-family:Menlo;-inkscape-font-specification:Menlo"
     x="161.47723"
     y="187.53343"
     id="text70175-4"><tspan
       sodipodi:role="line"
       id="tspan70173-1"
       x="161.47723"
       y="187.53343"
       style="font-size:16px;fill:#0400fb;fill-opacity:1;stroke:none;stroke-opacity:1">v<tspan
   style="font-size:10.6667px"
   id="tspan78996">⊥</tspan></tspan></text>
  <metadata
     id="metadata82697">
    <rdf:RDF>
      <cc:Work
         rdf:about="">
        <dc:title>Rotate arbitrary axis</dc:title>
      </cc:Work>
    </rdf:RDF>
  </metadata>
</svg>
