<?xml version="1.0" encoding="UTF-8" standalone="no"?>
<svg
   id="Layer_1"
   data-name="Layer 1"
   viewBox="0 0 264.86 357.67"
   version="1.1"
   sodipodi:docname="rotate_arbitrary_axis_4.svg"
   inkscape:version="1.1.1 (c3084ef, 2021-09-22)"
   xmlns:inkscape="http://www.inkscape.org/namespaces/inkscape"
   xmlns:sodipodi="http://sodipodi.sourceforge.net/DTD/sodipodi-0.dtd"
   xmlns="http://www.w3.org/2000/svg"
   xmlns:svg="http://www.w3.org/2000/svg"
   xmlns:rdf="http://www.w3.org/1999/02/22-rdf-syntax-ns#"
   xmlns:cc="http://creativecommons.org/ns#"
   xmlns:dc="http://purl.org/dc/elements/1.1/">
  <sodipodi:namedview
     id="namedview65804"
     pagecolor="#ffffff"
     bordercolor="#666666"
     borderopacity="1.0"
     inkscape:pageshadow="2"
     inkscape:pageopacity="0.0"
     inkscape:pagecheckerboard="0"
     showgrid="false"
     inkscape:zoom="2.3485335"
     inkscape:cx="122.84262"
     inkscape:cy="179.0479"
     inkscape:window-width="1296"
     inkscape:window-height="1019"
     inkscape:window-x="298"
     inkscape:window-y="25"
     inkscape:window-maximized="0"
     inkscape:current-layer="Layer_1" />
  <defs
     id="defs65701">
    <marker
       style="overflow:visible;"
       id="marker68449"
       refX="0.0"
       refY="0.0"
       orient="auto"
       inkscape:stockid="Arrow1Lend"
       inkscape:isstock="true">
      <path
         transform="scale(0.8) rotate(180) translate(12.5,0)"
         style="fill-rule:evenodd;fill:context-stroke;stroke:context-stroke;stroke-width:1.0pt;"
         d="M 0.0,0.0 L 5.0,-5.0 L -12.5,0.0 L 5.0,5.0 L 0.0,0.0 z "
         id="path68447" />
    </marker>
    <marker
       style="overflow:visible;"
       id="Arrow1Lend"
       refX="0.0"
       refY="0.0"
       orient="auto"
       inkscape:stockid="Arrow1Lend"
       inkscape:isstock="true">
      <path
         transform="scale(0.8) rotate(180) translate(12.5,0)"
         style="fill-rule:evenodd;fill:context-stroke;stroke:context-stroke;stroke-width:1.0pt;"
         d="M 0.0,0.0 L 5.0,-5.0 L -12.5,0.0 L 5.0,5.0 L 0.0,0.0 z "
         id="path50448" />
    </marker>
    <style
       id="style65699">.cls-1,.cls-2{fill:none;stroke:#000;stroke-miterlimit:10;}.cls-2{stroke-dasharray:4 4;}.cls-3{fill:#a6a6a6;}.cls-4{fill:#666;}</style>
  </defs>
  <title
     id="title65703">Rotate arbitrary axis</title>
  <text
     xml:space="preserve"
     style="font-size:40px;line-height:1.25;font-family:Menlo;-inkscape-font-specification:Menlo"
     x="88.56591"
     y="297.63254"
     id="text73453"><tspan
       sodipodi:role="line"
       id="tspan73451"
       x="88.56591"
       y="297.63254" /><tspan
       sodipodi:role="line"
       id="tspan73455"
       x="88.56591"
       y="347.63254" /></text>
  <metadata
     id="metadata82697">
    <rdf:RDF>
      <cc:Work
         rdf:about="">
        <dc:title>Rotate arbitrary axis</dc:title>
      </cc:Work>
    </rdf:RDF>
  </metadata>
  <path
     style="fill:none;stroke:#000000;stroke-width:1px;stroke-linecap:butt;stroke-linejoin:miter;stroke-opacity:1"
     d="M 128.16509,152.43555 221.41477,91.546491"
     id="path2880" />
  <circle
     style="fill:none;stroke:#000000;stroke-width:1.518;stroke-miterlimit:4;stroke-dasharray:none;stroke-opacity:1;paint-order:markers stroke fill"
     id="path2906"
     cx="128.16508"
     cy="152.43555"
     r="111.98477" />
  <path
     style="fill:none;stroke:#0000fd;stroke-width:1px;stroke-linecap:butt;stroke-linejoin:miter;stroke-opacity:1;marker-end:url(#marker68449)"
     d="m 128.16509,152.43555 110.28158,-0.4258"
     id="path2941" />
  <path
     style="fill:none;stroke:#000000;stroke-width:1.518;stroke-miterlimit:4;stroke-dasharray:none;stroke-opacity:1;paint-order:markers stroke fill"
     id="path2965"
     sodipodi:type="arc"
     sodipodi:cx="128.16508"
     sodipodi:cy="152.43555"
     sodipodi:rx="14.05132"
     sodipodi:ry="14.05132"
     sodipodi:start="5.6723201"
     sodipodi:end="0"
     sodipodi:arc-type="slice"
     d="m 139.67525,144.37604 a 14.05132,14.05132 0 0 1 2.54115,8.05951 h -14.05132 z" />
  <text
     xml:space="preserve"
     style="font-size:16px;line-height:1.25;font-family:Menlo;-inkscape-font-specification:Menlo"
     x="183.14928"
     y="167.45551"
     id="text70175-4"><tspan
       sodipodi:role="line"
       id="tspan70173-1"
       x="183.14928"
       y="167.45551"
       style="font-size:16px;fill:#0400fb;fill-opacity:1;stroke:none;stroke-opacity:1">v<tspan
   style="font-size:10.6667px"
   id="tspan78996">⊥</tspan></tspan></text>
  <path
     d="m 158.92469,143.3938 c 0,-3.31 1.35,-5.85 3.8,-5.85 2.45,0 3.66,2.36 3.66,5.85 0,3.66 -1.19,6.05 -3.71,6.05 -2.32,0 -3.75,-2.03 -3.75,-6.05 z m 6.05,-0.61 c 0,-2.31 -0.75,-4.18 -2.33,-4.18 -1.58,0 -2.31,2 -2.31,4.18 z m -4.64,1.07 c 0,2.89 1,4.54 2.38,4.54 1.38,0 2.26,-1.89 2.26,-4.54 z"
     id="path65783" />
  <path
     d="m 126.78189,191.78037 -0.17,-1.47 h -0.07 a 4.32,4.32 0 0 1 -3.56,1.73 3.3,3.3 0 0 1 -3.52,-3.35 c 0,-2.81 2.5,-4.35 7,-4.32 v -0.24 a 2.4,2.4 0 0 0 -2.64,-2.69 5.8,5.8 0 0 0 -3,0.86 l -0.48,-1.39 a 7.24,7.24 0 0 1 3.82,-1 c 3.55,0 4.41,2.42 4.41,4.75 v 4.33 a 15.75,15.75 0 0 0 0.2,2.79 z m -0.32,-5.93 c -2.3,-0.05 -4.92,0.36 -4.92,2.62 a 1.87,1.87 0 0 0 2,2 2.88,2.88 0 0 0 2.8,-1.94 2,2 0 0 0 0.12,-0.67 z"
     id="path65771"
     inkscape:transform-center-x="-10.219144"
     inkscape:transform-center-y="-19.160894" />
  <path
     style="fill:none;stroke:#000000;stroke-width:1;stroke-linecap:butt;stroke-linejoin:miter;stroke-opacity:1;stroke-miterlimit:4;stroke-dasharray:1,1;stroke-dashoffset:0"
     d="m 128.16508,152.43555 1e-5,-112.410573"
     id="path5304" />
  <path
     style="fill:none;stroke:#000000;stroke-width:1;stroke-linecap:butt;stroke-linejoin:miter;stroke-opacity:1;stroke-miterlimit:4;stroke-dasharray:1,1;stroke-dashoffset:0"
     d="m 221.41477,91.546491 0.4258,59.611669"
     id="path5419" />
  <text
     xml:space="preserve"
     style="font-style:normal;font-weight:normal;font-size:40px;line-height:1.25;font-family:sans-serif;fill:#000000;fill-opacity:1;stroke:none"
     x="112.41057"
     y="50.244122"
     id="text5933"><tspan
       sodipodi:role="line"
       id="tspan5931"></tspan></text>
  <path
     style="fill:none;stroke:#000000;stroke-width:1;stroke-linecap:butt;stroke-linejoin:miter;stroke-opacity:1;stroke-miterlimit:4;stroke-dasharray:1,1;stroke-dashoffset:0"
     d="M 128.16508,152.43555 99.210848,215.8794"
     id="path6658" />
  <path
     d="m 78.486481,73.976592 -0.131127,-1.212186 h -0.05399 c -0.645723,0.92221 -1.668719,1.45368 -2.745953,1.426586 -1.486962,0.106459 -2.741014,-1.169468 -2.715103,-2.762463 0,-1.764096 1.117666,-2.921199 3.182817,-3.362148 0.647461,-0.138246 1.388053,-0.206098 2.216532,-0.200193 V 67.66828 c 0.15164,-1.269324 -0.84638,-2.356491 -2.036325,-2.218217 -0.817454,0.0059 -1.617763,0.2512 -2.314005,0.70917 l -0.370244,-1.146216 c 0.891725,-0.561433 1.911837,-0.846925 2.9465,-0.824616 2.73824,0 3.401588,1.99557 3.401588,3.916925 v 3.570587 c -0.0125,0.770267 0.03912,1.540195 0.154267,2.300679 z m -0.246827,-4.889973 c -1.774071,-0.04123 -3.794969,0.296862 -3.794969,2.160494 -0.06341,0.937492 0.665753,1.717023 1.54267,1.649232 0.969351,0.02785 1.843589,-0.619715 2.159739,-1.599755 0.06016,-0.177157 0.09146,-0.364028 0.09256,-0.552493 z"
     id="path65771-3"
     inkscape:transform-center-x="-7.8823859"
     inkscape:transform-center-y="-15.800378"
     sodipodi:nodetypes="cccccsccccccsccccccccc"
     style="stroke-width:0.797531" />
  <text
     xml:space="preserve"
     style="font-style:normal;font-weight:normal;font-size:40px;line-height:1.25;font-family:sans-serif;fill:#000000;fill-opacity:1;stroke:none"
     x="85.58532"
     y="73.23719"
     id="text7404"><tspan
       sodipodi:role="line"
       id="tspan7402"
       x="85.58532"
       y="73.23719"><tspan
   style="font-size:16px"
   id="tspan8560">x v</tspan><tspan
   id="tspan9264"
   style="font-size:10.6667px">⊥</tspan> </tspan></text>
</svg>
